<svg xmlns="http://www.w3.org/2000/svg" width="330.12" height="35" viewBox="0 0 330.12 35"><rect class="svg__rect" x="0" y="0" width="167.33" height="35" fill="#31C4F3"/><rect class="svg__rect" x="165.33" y="0" width="164.79" height="35" fill="#389AD5"/><path class="svg__text" d="M19.57 22L14.22 22L14.22 13.47L15.70 13.47L15.70 20.82L19.57 20.82L19.57 22ZM29.28 22L23.70 22L23.70 13.47L29.23 13.47L29.23 14.66L25.18 14.66L25.18 17.02L28.68 17.02L28.68 18.19L25.18 18.19L25.18 20.82L29.28 20.82L29.28 22ZM34.25 22L32.71 22L35.93 13.47L37.26 13.47L40.49 22L38.94 22L38.25 20.01L34.94 20.01L34.25 22ZM36.59 15.28L35.36 18.82L37.83 18.82L36.59 15.28ZM45.93 22L44.45 22L44.45 13.47L47.45 13.47Q48.92 13.47 49.73 14.13Q50.53 14.79 50.53 16.05L50.53 16.05Q50.53 16.90 50.11 17.48Q49.70 18.06 48.96 18.37L48.96 18.37L50.88 21.92L50.88 22L49.29 22L47.58 18.71L45.93 18.71L45.93 22ZM45.93 14.66L45.93 17.52L47.45 17.52Q48.20 17.52 48.62 17.15Q49.05 16.77 49.05 16.11L49.05 16.11Q49.05 15.43 48.66 15.05Q48.27 14.68 47.49 14.66L47.49 14.66L45.93 14.66ZM56.40 22L54.92 22L54.92 13.47L56.40 13.47L60.22 19.54L60.22 13.47L61.69 13.47L61.69 22L60.21 22L56.40 15.95L56.40 22ZM68.11 14.66L65.47 14.66L65.47 13.47L72.24 13.47L72.24 14.66L69.58 14.66L69.58 22L68.11 22L68.11 14.66ZM83.66 14.66L81.02 14.66L81.02 13.47L87.79 13.47L87.79 14.66L85.13 14.66L85.13 22L83.66 22L83.66 14.66ZM93.03 22L91.54 22L91.54 13.47L93.03 13.47L93.03 17.02L96.84 17.02L96.84 13.47L98.32 13.47L98.32 22L96.84 22L96.84 18.21L93.03 18.21L93.03 22ZM104.54 22L103.06 22L103.06 13.47L106.06 13.47Q107.53 13.47 108.34 14.13Q109.14 14.79 109.14 16.05L109.14 16.05Q109.14 16.90 108.73 17.48Q108.31 18.06 107.57 18.37L107.57 18.37L109.49 21.92L109.49 22L107.90 22L106.19 18.71L104.54 18.71L104.54 22ZM104.54 14.66L104.54 17.52L106.06 17.52Q106.81 17.52 107.23 17.15Q107.66 16.77 107.66 16.11L107.66 16.11Q107.66 15.43 107.27 15.05Q106.88 14.68 106.10 14.66L106.10 14.66L104.54 14.66ZM113.26 18.00L113.26 18.00L113.26 17.52Q113.26 16.28 113.71 15.32Q114.15 14.37 114.95 13.86Q115.76 13.35 116.80 13.35Q117.85 13.35 118.65 13.85Q119.46 14.35 119.90 15.29Q120.34 16.23 120.34 17.48L120.34 17.48L120.34 17.96Q120.34 19.21 119.91 20.16Q119.47 21.10 118.67 21.61Q117.86 22.12 116.81 22.12L116.81 22.12Q115.78 22.12 114.97 21.61Q114.15 21.10 113.71 20.17Q113.27 19.23 113.26 18.00ZM114.75 17.46L114.75 17.96Q114.75 19.36 115.29 20.13Q115.84 20.90 116.81 20.90L116.81 20.90Q117.80 20.90 118.33 20.15Q118.86 19.40 118.86 17.96L118.86 17.96L118.86 17.51Q118.86 16.09 118.32 15.34Q117.79 14.58 116.80 14.58L116.80 14.58Q115.84 14.58 115.30 15.33Q114.76 16.09 114.75 17.46L114.75 17.46ZM124.67 19.16L124.67 19.16L124.67 13.47L126.15 13.47L126.15 19.18Q126.15 20.03 126.58 20.48Q127.02 20.93 127.86 20.93L127.86 20.93Q129.57 20.93 129.57 19.13L129.57 19.13L129.57 13.47L131.05 13.47L131.05 19.17Q131.05 20.53 130.18 21.32Q129.31 22.12 127.86 22.12L127.86 22.12Q126.39 22.12 125.53 21.33Q124.67 20.55 124.67 19.16ZM135.37 18.13L135.37 18.13L135.37 17.46Q135.37 15.53 136.30 14.44Q137.22 13.35 138.88 13.35L138.88 13.35Q140.31 13.35 141.14 14.05Q141.98 14.76 142.15 16.08L142.15 16.08L140.70 16.08Q140.45 14.54 138.91 14.54L138.91 14.54Q137.91 14.54 137.40 15.26Q136.88 15.98 136.86 17.37L136.86 17.37L136.86 18.02Q136.86 19.40 137.44 20.17Q138.03 20.93 139.06 20.93L139.06 20.93Q140.20 20.93 140.68 20.42L140.68 20.42L140.68 18.75L138.92 18.75L138.92 17.62L142.16 17.62L142.16 20.89Q141.69 21.50 140.87 21.81Q140.05 22.12 139.01 22.12L139.01 22.12Q137.94 22.12 137.11 21.63Q136.29 21.14 135.84 20.24Q135.39 19.33 135.37 18.13ZM148.26 22L146.77 22L146.77 13.47L148.26 13.47L148.26 17.02L152.07 17.02L152.07 13.47L153.55 13.47L153.55 22L152.07 22L152.07 18.21L148.26 18.21L148.26 22Z" fill="#FFFFFF"/><path class="svg__text" d="M181.31 15.48L178.73 15.48L178.73 13.60L186.25 13.60L186.25 15.48L183.68 15.48L183.68 22L181.31 22L181.31 15.48ZM193.00 22L190.62 22L190.62 13.60L193.00 13.60L193.00 16.76L196.24 16.76L196.24 13.60L198.61 13.60L198.61 22L196.24 22L196.24 18.72L193.00 18.72L193.00 22ZM206.15 22L203.78 22L203.78 13.60L206.15 13.60L206.15 22ZM210.74 21.24L210.74 21.24L211.52 19.49Q212.08 19.86 212.83 20.09Q213.57 20.32 214.29 20.32L214.29 20.32Q215.66 20.32 215.66 19.64L215.66 19.64Q215.66 19.28 215.27 19.11Q214.89 18.93 214.02 18.74L214.02 18.74Q213.07 18.53 212.43 18.30Q211.80 18.06 211.34 17.55Q210.89 17.03 210.89 16.16L210.89 16.16Q210.89 15.39 211.31 14.77Q211.73 14.15 212.56 13.79Q213.40 13.43 214.60 13.43L214.60 13.43Q215.43 13.43 216.24 13.62Q217.04 13.80 217.66 14.17L217.66 14.17L216.92 15.93Q215.72 15.28 214.59 15.28L214.59 15.28Q213.88 15.28 213.56 15.49Q213.24 15.70 213.24 16.04L213.24 16.04Q213.24 16.37 213.62 16.54Q214.01 16.71 214.86 16.89L214.86 16.89Q215.82 17.10 216.45 17.33Q217.08 17.56 217.54 18.07Q218.00 18.58 218.00 19.46L218.00 19.46Q218.00 20.21 217.58 20.83Q217.16 21.44 216.32 21.80Q215.48 22.17 214.28 22.17L214.28 22.17Q213.26 22.17 212.30 21.92Q211.34 21.67 210.74 21.24ZM231.34 15.48L228.76 15.48L228.76 13.60L236.28 13.60L236.28 15.48L233.72 15.48L233.72 22L231.34 22L231.34 15.48ZM240.58 18.26L240.58 18.26L240.58 13.60L242.96 13.60L242.96 18.19Q242.96 20.20 244.56 20.20L244.56 20.20Q246.14 20.20 246.14 18.19L246.14 18.19L246.14 13.60L248.48 13.60L248.48 18.26Q248.48 20.13 247.44 21.15Q246.40 22.17 244.53 22.17L244.53 22.17Q242.66 22.17 241.62 21.15Q240.58 20.13 240.58 18.26ZM255.36 15.48L252.78 15.48L252.78 13.60L260.30 13.60L260.30 15.48L257.73 15.48L257.73 22L255.36 22L255.36 15.48ZM264.24 17.80L264.24 17.80Q264.24 16.55 264.85 15.55Q265.45 14.56 266.51 14.00Q267.58 13.43 268.91 13.43L268.91 13.43Q270.24 13.43 271.30 14.00Q272.37 14.56 272.97 15.55Q273.58 16.55 273.58 17.80L273.58 17.80Q273.58 19.05 272.97 20.04Q272.37 21.04 271.31 21.60Q270.24 22.17 268.91 22.17L268.91 22.17Q267.58 22.17 266.51 21.60Q265.45 21.04 264.85 20.04Q264.24 19.05 264.24 17.80ZM266.64 17.80L266.64 17.80Q266.64 18.51 266.94 19.05Q267.24 19.60 267.76 19.90Q268.28 20.20 268.91 20.20L268.91 20.20Q269.55 20.20 270.06 19.90Q270.58 19.60 270.88 19.05Q271.18 18.51 271.18 17.80L271.18 17.80Q271.18 17.09 270.88 16.54Q270.58 16 270.06 15.70Q269.55 15.40 268.91 15.40L268.91 15.40Q268.27 15.40 267.76 15.70Q267.24 16 266.94 16.54Q266.64 17.09 266.64 17.80ZM280.69 22L278.31 22L278.31 13.60L282.15 13.60Q283.29 13.60 284.13 13.98Q284.97 14.35 285.43 15.06Q285.88 15.76 285.88 16.71L285.88 16.71Q285.88 17.62 285.46 18.30Q285.03 18.98 284.24 19.36L284.24 19.36L286.05 22L283.50 22L281.98 19.77L280.69 19.77L280.69 22ZM280.69 15.47L280.69 17.93L282.00 17.93Q282.74 17.93 283.11 17.61Q283.48 17.29 283.48 16.71L283.48 16.71Q283.48 16.12 283.11 15.79Q282.74 15.47 282.00 15.47L282.00 15.47L280.69 15.47ZM293.05 22L290.67 22L290.67 13.60L293.05 13.60L293.05 22ZM299.64 22L297.22 22L300.92 13.60L303.27 13.60L306.98 22L304.52 22L303.85 20.37L300.30 20.37L299.64 22ZM302.08 15.93L300.99 18.61L303.16 18.61L302.08 15.93ZM317.52 22L311.14 22L311.14 13.60L313.52 13.60L313.52 20.11L317.52 20.11L317.52 22Z" fill="#FFFFFF" x="178.33"/></svg>